<svg width="255" height="255" viewBox="0 0 255 255" fill="none" xmlns="http://www.w3.org/2000/svg">
<path d="M17.9478 190.75L127.5 1L237.052 190.75H17.9478Z" stroke="#0085FF"/>
<path d="M17.9478 190.75L127.5 1L237.052 190.75H17.9478Z" stroke="black" stroke-opacity="0.5"/>
<path d="M0.707107 127.5L127.5 0.707107L254.293 127.5L127.5 254.293L0.707107 127.5Z" stroke="#0085FF"/>
<path d="M0.707107 127.5L127.5 0.707107L254.293 127.5L127.5 254.293L0.707107 127.5Z" stroke="black" stroke-opacity="0.25"/>
<path d="M6.82808 88.2913L127.5 0.618033L248.172 88.2913L202.079 230.15H52.9207L6.82808 88.2913Z" stroke="#0085FF"/>
<path d="M17.5818 64.0387L127.5 0.57735L237.418 64.0387V190.961L127.5 254.423L17.5818 190.961V64.0387Z" stroke="#0085FF"/>
<path d="M17.5818 64.0387L127.5 0.57735L237.418 64.0387V190.961L127.5 254.423L17.5818 190.961V64.0387Z" stroke="white" stroke-opacity="0.5"/>
<path d="M28.2504 48.3511L127.5 0.554958L226.75 48.3511L251.262 155.748L182.579 241.874H72.4206L3.73774 155.748L28.2504 48.3511Z" stroke="#2B99FF"/>
<path d="M28.2504 48.3511L127.5 0.554958L226.75 48.3511L251.262 155.748L182.579 241.874H72.4206L3.73774 155.748L28.2504 48.3511Z" stroke="white" stroke-opacity="0.75"/>
<path d="M37.7266 37.7266L127.5 0.541198L217.273 37.7266L254.459 127.5L217.273 217.273L127.5 254.459L37.7266 217.273L0.541198 127.5L37.7266 37.7266Z" stroke="#0085FF"/>
<path d="M37.7266 37.7266L127.5 0.541198L217.273 37.7266L254.459 127.5L217.273 217.273L127.5 254.459L37.7266 217.273L0.541198 127.5L37.7266 37.7266Z" stroke="white" stroke-opacity="0.9"/>
<path d="M100.395 107.156V108.387L98.0156 108.668C98.2344 108.941 98.4297 109.301 98.6016 109.746C98.7734 110.184 98.8594 110.68 98.8594 111.234C98.8594 112.492 98.4297 113.496 97.5703 114.246C96.7109 114.996 95.5312 115.371 94.0312 115.371C93.6484 115.371 93.2891 115.34 92.9531 115.277C92.125 115.715 91.7109 116.266 91.7109 116.93C91.7109 117.281 91.8555 117.543 92.1445 117.715C92.4336 117.879 92.9297 117.961 93.6328 117.961H95.9062C97.2969 117.961 98.3633 118.254 99.1055 118.84C99.8555 119.426 100.23 120.277 100.23 121.395C100.23 122.816 99.6602 123.898 98.5195 124.641C97.3789 125.391 95.7148 125.766 93.5273 125.766C91.8477 125.766 90.5508 125.453 89.6367 124.828C88.7305 124.203 88.2773 123.32 88.2773 122.18C88.2773 121.398 88.5273 120.723 89.0273 120.152C89.5273 119.582 90.2305 119.195 91.1367 118.992C90.8086 118.844 90.5312 118.613 90.3047 118.301C90.0859 117.988 89.9766 117.625 89.9766 117.211C89.9766 116.742 90.1016 116.332 90.3516 115.98C90.6016 115.629 90.9961 115.289 91.5352 114.961C90.8711 114.688 90.3281 114.223 89.9062 113.566C89.4922 112.91 89.2852 112.16 89.2852 111.316C89.2852 109.91 89.707 108.828 90.5508 108.07C91.3945 107.305 92.5898 106.922 94.1367 106.922C94.8086 106.922 95.4141 107 95.9531 107.156H100.395ZM90.1523 122.156C90.1523 122.852 90.4453 123.379 91.0312 123.738C91.6172 124.098 92.457 124.277 93.5508 124.277C95.1836 124.277 96.3906 124.031 97.1719 123.539C97.9609 123.055 98.3555 122.395 98.3555 121.559C98.3555 120.863 98.1406 120.379 97.7109 120.105C97.2812 119.84 96.4727 119.707 95.2852 119.707H92.9531C92.0703 119.707 91.3828 119.918 90.8906 120.34C90.3984 120.762 90.1523 121.367 90.1523 122.156ZM91.207 111.27C91.207 112.168 91.4609 112.848 91.9688 113.309C92.4766 113.77 93.1836 114 94.0898 114C95.9883 114 96.9375 113.078 96.9375 111.234C96.9375 109.305 95.9766 108.34 94.0547 108.34C93.1406 108.34 92.4375 108.586 91.9453 109.078C91.4531 109.57 91.207 110.301 91.207 111.27ZM108.891 106.922C109.461 106.922 109.973 106.969 110.426 107.062L110.156 108.867C109.625 108.75 109.156 108.691 108.75 108.691C107.711 108.691 106.82 109.113 106.078 109.957C105.344 110.801 104.977 111.852 104.977 113.109V120H103.031V107.156H104.637L104.859 109.535H104.953C105.43 108.699 106.004 108.055 106.676 107.602C107.348 107.148 108.086 106.922 108.891 106.922ZM123.914 113.566C123.914 115.66 123.387 117.297 122.332 118.477C121.277 119.648 119.82 120.234 117.961 120.234C116.812 120.234 115.793 119.965 114.902 119.426C114.012 118.887 113.324 118.113 112.84 117.105C112.355 116.098 112.113 114.918 112.113 113.566C112.113 111.473 112.637 109.844 113.684 108.68C114.73 107.508 116.184 106.922 118.043 106.922C119.84 106.922 121.266 107.52 122.32 108.715C123.383 109.91 123.914 111.527 123.914 113.566ZM114.129 113.566C114.129 115.207 114.457 116.457 115.113 117.316C115.77 118.176 116.734 118.605 118.008 118.605C119.281 118.605 120.246 118.18 120.902 117.328C121.566 116.469 121.898 115.215 121.898 113.566C121.898 111.934 121.566 110.695 120.902 109.852C120.246 109 119.273 108.574 117.984 108.574C116.711 108.574 115.75 108.992 115.102 109.828C114.453 110.664 114.129 111.91 114.129 113.566ZM137.824 120L135.469 112.465C135.32 112.004 135.043 110.957 134.637 109.324H134.543C134.23 110.691 133.957 111.746 133.723 112.488L131.297 120H129.047L125.543 107.156H127.582C128.41 110.383 129.039 112.84 129.469 114.527C129.906 116.215 130.156 117.352 130.219 117.938H130.312C130.398 117.492 130.535 116.918 130.723 116.215C130.918 115.504 131.086 114.941 131.227 114.527L133.582 107.156H135.691L137.988 114.527C138.426 115.871 138.723 117 138.879 117.914H138.973C139.004 117.633 139.086 117.199 139.219 116.613C139.359 116.027 140.176 112.875 141.668 107.156H143.684L140.133 120H137.824ZM150.164 118.629C150.508 118.629 150.84 118.605 151.16 118.559C151.48 118.504 151.734 118.449 151.922 118.395V119.883C151.711 119.984 151.398 120.066 150.984 120.129C150.578 120.199 150.211 120.234 149.883 120.234C147.398 120.234 146.156 118.926 146.156 116.309V108.668H144.316V107.73L146.156 106.922L146.977 104.18H148.102V107.156H151.828V108.668H148.102V116.227C148.102 117 148.285 117.594 148.652 118.008C149.02 118.422 149.523 118.629 150.164 118.629ZM163.289 120V111.691C163.289 110.645 163.051 109.863 162.574 109.348C162.098 108.832 161.352 108.574 160.336 108.574C158.984 108.574 157.996 108.941 157.371 109.676C156.754 110.41 156.445 111.613 156.445 113.285V120H154.5V101.766H156.445V107.285C156.445 107.949 156.414 108.5 156.352 108.938H156.469C156.852 108.32 157.395 107.836 158.098 107.484C158.809 107.125 159.617 106.945 160.523 106.945C162.094 106.945 163.27 107.32 164.051 108.07C164.84 108.812 165.234 109.996 165.234 111.621V120H163.289ZM73.3594 152.234C71.4609 152.234 69.9609 151.656 68.8594 150.5C67.7656 149.344 67.2188 147.738 67.2188 145.684C67.2188 143.613 67.7266 141.969 68.7422 140.75C69.7656 139.531 71.1367 138.922 72.8555 138.922C74.4648 138.922 75.7383 139.453 76.6758 140.516C77.6133 141.57 78.082 142.965 78.082 144.699V145.93H69.2344C69.2734 147.438 69.6523 148.582 70.3711 149.363C71.0977 150.145 72.1172 150.535 73.4297 150.535C74.8125 150.535 76.1797 150.246 77.5312 149.668V151.402C76.8438 151.699 76.1914 151.91 75.5742 152.035C74.9648 152.168 74.2266 152.234 73.3594 152.234ZM72.832 140.551C71.8008 140.551 70.9766 140.887 70.3594 141.559C69.75 142.23 69.3906 143.16 69.2812 144.348H75.9961C75.9961 143.121 75.7227 142.184 75.1758 141.535C74.6289 140.879 73.8477 140.551 72.832 140.551ZM90.1992 152V143.691C90.1992 142.645 89.9609 141.863 89.4844 141.348C89.0078 140.832 88.2617 140.574 87.2461 140.574C85.9023 140.574 84.918 140.938 84.293 141.664C83.668 142.391 83.3555 143.59 83.3555 145.262V152H81.4102V139.156H82.9922L83.3086 140.914H83.4023C83.8008 140.281 84.3594 139.793 85.0781 139.449C85.7969 139.098 86.5977 138.922 87.4805 138.922C89.0273 138.922 90.1914 139.297 90.9727 140.047C91.7539 140.789 92.1445 141.98 92.1445 143.621V152H90.1992ZM106.664 139.156V140.387L104.285 140.668C104.504 140.941 104.699 141.301 104.871 141.746C105.043 142.184 105.129 142.68 105.129 143.234C105.129 144.492 104.699 145.496 103.84 146.246C102.98 146.996 101.801 147.371 100.301 147.371C99.918 147.371 99.5586 147.34 99.2227 147.277C98.3945 147.715 97.9805 148.266 97.9805 148.93C97.9805 149.281 98.125 149.543 98.4141 149.715C98.7031 149.879 99.1992 149.961 99.9023 149.961H102.176C103.566 149.961 104.633 150.254 105.375 150.84C106.125 151.426 106.5 152.277 106.5 153.395C106.5 154.816 105.93 155.898 104.789 156.641C103.648 157.391 101.984 157.766 99.7969 157.766C98.1172 157.766 96.8203 157.453 95.9062 156.828C95 156.203 94.5469 155.32 94.5469 154.18C94.5469 153.398 94.7969 152.723 95.2969 152.152C95.7969 151.582 96.5 151.195 97.4062 150.992C97.0781 150.844 96.8008 150.613 96.5742 150.301C96.3555 149.988 96.2461 149.625 96.2461 149.211C96.2461 148.742 96.3711 148.332 96.6211 147.98C96.8711 147.629 97.2656 147.289 97.8047 146.961C97.1406 146.688 96.5977 146.223 96.1758 145.566C95.7617 144.91 95.5547 144.16 95.5547 143.316C95.5547 141.91 95.9766 140.828 96.8203 140.07C97.6641 139.305 98.8594 138.922 100.406 138.922C101.078 138.922 101.684 139 102.223 139.156H106.664ZM96.4219 154.156C96.4219 154.852 96.7148 155.379 97.3008 155.738C97.8867 156.098 98.7266 156.277 99.8203 156.277C101.453 156.277 102.66 156.031 103.441 155.539C104.23 155.055 104.625 154.395 104.625 153.559C104.625 152.863 104.41 152.379 103.98 152.105C103.551 151.84 102.742 151.707 101.555 151.707H99.2227C98.3398 151.707 97.6523 151.918 97.1602 152.34C96.668 152.762 96.4219 153.367 96.4219 154.156ZM97.4766 143.27C97.4766 144.168 97.7305 144.848 98.2383 145.309C98.7461 145.77 99.4531 146 100.359 146C102.258 146 103.207 145.078 103.207 143.234C103.207 141.305 102.246 140.34 100.324 140.34C99.4102 140.34 98.707 140.586 98.2148 141.078C97.7227 141.57 97.4766 142.301 97.4766 143.27ZM111.246 152H109.301V139.156H111.246V152ZM109.137 135.676C109.137 135.23 109.246 134.906 109.465 134.703C109.684 134.492 109.957 134.387 110.285 134.387C110.598 134.387 110.867 134.492 111.094 134.703C111.32 134.914 111.434 135.238 111.434 135.676C111.434 136.113 111.32 136.441 111.094 136.66C110.867 136.871 110.598 136.977 110.285 136.977C109.957 136.977 109.684 136.871 109.465 136.66C109.246 136.441 109.137 136.113 109.137 135.676ZM124.16 152V143.691C124.16 142.645 123.922 141.863 123.445 141.348C122.969 140.832 122.223 140.574 121.207 140.574C119.863 140.574 118.879 140.938 118.254 141.664C117.629 142.391 117.316 143.59 117.316 145.262V152H115.371V139.156H116.953L117.27 140.914H117.363C117.762 140.281 118.32 139.793 119.039 139.449C119.758 139.098 120.559 138.922 121.441 138.922C122.988 138.922 124.152 139.297 124.934 140.047C125.715 140.789 126.105 141.98 126.105 143.621V152H124.16ZM135.539 152.234C133.641 152.234 132.141 151.656 131.039 150.5C129.945 149.344 129.398 147.738 129.398 145.684C129.398 143.613 129.906 141.969 130.922 140.75C131.945 139.531 133.316 138.922 135.035 138.922C136.645 138.922 137.918 139.453 138.855 140.516C139.793 141.57 140.262 142.965 140.262 144.699V145.93H131.414C131.453 147.438 131.832 148.582 132.551 149.363C133.277 150.145 134.297 150.535 135.609 150.535C136.992 150.535 138.359 150.246 139.711 149.668V151.402C139.023 151.699 138.371 151.91 137.754 152.035C137.145 152.168 136.406 152.234 135.539 152.234ZM135.012 140.551C133.98 140.551 133.156 140.887 132.539 141.559C131.93 142.23 131.57 143.16 131.461 144.348H138.176C138.176 143.121 137.902 142.184 137.355 141.535C136.809 140.879 136.027 140.551 135.012 140.551ZM149.016 152.234C147.117 152.234 145.617 151.656 144.516 150.5C143.422 149.344 142.875 147.738 142.875 145.684C142.875 143.613 143.383 141.969 144.398 140.75C145.422 139.531 146.793 138.922 148.512 138.922C150.121 138.922 151.395 139.453 152.332 140.516C153.27 141.57 153.738 142.965 153.738 144.699V145.93H144.891C144.93 147.438 145.309 148.582 146.027 149.363C146.754 150.145 147.773 150.535 149.086 150.535C150.469 150.535 151.836 150.246 153.188 149.668V151.402C152.5 151.699 151.848 151.91 151.23 152.035C150.621 152.168 149.883 152.234 149.016 152.234ZM148.488 140.551C147.457 140.551 146.633 140.887 146.016 141.559C145.406 142.23 145.047 143.16 144.938 144.348H151.652C151.652 143.121 151.379 142.184 150.832 141.535C150.285 140.879 149.504 140.551 148.488 140.551ZM162.926 138.922C163.496 138.922 164.008 138.969 164.461 139.062L164.191 140.867C163.66 140.75 163.191 140.691 162.785 140.691C161.746 140.691 160.855 141.113 160.113 141.957C159.379 142.801 159.012 143.852 159.012 145.109V152H157.066V139.156H158.672L158.895 141.535H158.988C159.465 140.699 160.039 140.055 160.711 139.602C161.383 139.148 162.121 138.922 162.926 138.922ZM166.582 150.758C166.582 150.234 166.699 149.84 166.934 149.574C167.176 149.301 167.52 149.164 167.965 149.164C168.418 149.164 168.77 149.301 169.02 149.574C169.277 149.84 169.406 150.234 169.406 150.758C169.406 151.266 169.277 151.656 169.02 151.93C168.762 152.203 168.41 152.34 167.965 152.34C167.566 152.34 167.234 152.219 166.969 151.977C166.711 151.727 166.582 151.32 166.582 150.758ZM179.051 140.668H175.781V152H173.836V140.668H171.539V139.789L173.836 139.086V138.371C173.836 135.215 175.215 133.637 177.973 133.637C178.652 133.637 179.449 133.773 180.363 134.047L179.859 135.605C179.109 135.363 178.469 135.242 177.938 135.242C177.203 135.242 176.66 135.488 176.309 135.98C175.957 136.465 175.781 137.246 175.781 138.324V139.156H179.051V140.668ZM187.254 138.922C187.824 138.922 188.336 138.969 188.789 139.062L188.52 140.867C187.988 140.75 187.52 140.691 187.113 140.691C186.074 140.691 185.184 141.113 184.441 141.957C183.707 142.801 183.34 143.852 183.34 145.109V152H181.395V139.156H183L183.223 141.535H183.316C183.793 140.699 184.367 140.055 185.039 139.602C185.711 139.148 186.449 138.922 187.254 138.922Z" fill="#0085FF"/>
<path d="M124.617 130.457V128.676H130.371V130.457H124.617Z" fill="#0085FF"/>
</svg>
